<svg xmlns="http://www.w3.org/2000/svg" class="nc-icon glyph" viewBox="0 0 32 32">
  <g fill="#ffffff">
    <path d="M13 19c4.4 0 8-3.6 8-8V9c0-4.4-3.6-8-8-8S5 4.6 5 9v2c0 4.4 3.6 8 8 8z"/>
    <path d="M25 17c-2.8 0-5.2 1.7-6.3 4H8c-3.9 0-7 3.1-7 7v2c0 .6.4 1 1 1h23c3.9 0 7-3.1 7-7s-3.1-7-7-7zm0 12c-2.8 0-5-2.2-5-5s2.2-5 5-5 5 2.2 5 5-2.2 5-5 5z"/>
    <path d="M27 23h-1v-1c0-.6-.4-1-1-1s-1 .4-1 1v1h-1c-.6 0-1 .4-1 1s.4 1 1 1h1v1c0 .6.4 1 1 1s1-.4 1-1v-1h1c.6 0 1-.4 1-1s-.4-1-1-1z" data-color="color-2"/>
  </g>
</svg>
