<svg xmlns="http://www.w3.org/2000/svg" data-name="Layer 1" viewBox="0 0 59 55">
  <title>
    meter
  </title>
  <path fill="none" stroke="#ffffff" stroke-width="2" stroke-miterlimit="10" d="M26 27.8304h8v8h-8zM9.688 45.83H3.213L1 47.115v2.857"/>
  <path fill="none" stroke="#ffffff" stroke-width="2" stroke-miterlimit="10" d="M59 8.83H48.086l-7.961-7.463L31 9.836V3.83h-6v11.524l-5.695 5.476H56v22h-8v-15h-9v15h-9v3h-4.875"/>
  <path d="M17.625 36.6175a9 9 0 1 0 9 9 9.01 9.01 0 0 0-9-9zm-5.25 9a.75.75 0 0 1-1.5 0 6.7071 6.7071 0 0 1 .66525-2.90326l1.1445 1.1445a5.2022 5.2022 0 0 0-.30975 1.75875zm5.25 2.25a2.25275 2.25275 0 0 1-2.25-2.25 2.2232 2.2232 0 0 1 .225-.96376l-3.1605-3.16125L13.5 40.432l3.1605 3.16125a2.22956 2.22956 0 0 1 .9645-.22575 2.25 2.25 0 0 1 0 4.5zm6-1.5a.7498.7498 0 0 1-.75-.75 5.23474 5.23474 0 0 0-7.00875-4.94026l-1.14375-1.1445a6.73407 6.73407 0 0 1 9.6525 6.08475.7498.7498 0 0 1-.75.75z"/>
  <path fill="none" stroke="#ffffff" stroke-width="2" stroke-miterlimit="10" d="M5 45.83v-5H2h6"/>
</svg>