<svg xmlns="http://www.w3.org/2000/svg" class="nc-icon glyph" viewBox="0 0 48 48">
  <g>
    <path d="M38 47C17.598 47 1 30.402 1 10c0-.265.105-.52.293-.707l6-6c.391-.391 1.023-.391 1.414 0l10 10c.391.391.391 1.023 0 1.414L13.414 20 28 34.586l5.293-5.293c.391-.391 1.023-.391 1.414 0l10 10c.391.391.391 1.023 0 1.414l-6 6c-.187.188-.442.293-.707.293z"/>
    <path d="M46 21c-.552 0-1-.448-1-1 0-9.374-7.626-17-17-17-.552 0-1-.448-1-1s.448-1 1-1c10.477 0 19 8.523 19 19 0 .552-.448 1-1 1z" data-color="color-2"/>
    <path d="M38 21c-.552 0-1-.448-1-1 0-4.962-4.038-9-9-9-.552 0-1-.448-1-1s.448-1 1-1c6.065 0 11 4.935 11 11 0 .552-.448 1-1 1z" data-color="color-2"/>
  </g>
</svg>
