<svg xmlns="http://www.w3.org/2000/svg" data-name="Layer 1" viewBox="0 0 44 29">
  <title>
    quotes
  </title>
  <path fill="#ffffff" d="M8 20H1a.99974.99974 0 0 1-1-1v-9C0 4.95605 1.895 1.62438 5.62254.08287A1.00027 1.00027 0 0 1 6.3872 1.9315C3.6787 3.05115 2.24365 5.3633 2.0288 9H8a1 1 0 0 1 1 1v9a.99974.99974 0 0 1-1 1zm11 0h-7a.99974.99974 0 0 1-1-1v-9c0-5.044 1.895-8.37562 5.62254-9.91713a1.00027 1.00027 0 1 1 .76465 1.84863C14.6787 3.05114 13.24362 5.36328 13.0288 9H19a1 1 0 0 1 1 1v9a.99974.99974 0 0 1-1 1zM36 9h7a.99974.99974 0 0 1 1 1v9c0 5.044-1.886 8.37865-5.61352 9.92016a1.00027 1.00027 0 0 1-.76465-1.84864c2.7085-1.11963 4.13452-3.4348 4.34936-7.07152H36a1 1 0 0 1-1-1v-9a.99974.99974 0 0 1 1-1zM25 9h7a.99974.99974 0 0 1 1 1v9c0 5.044-1.886 8.37865-5.61352 9.92016a1.00027 1.00027 0 1 1-.76465-1.84863c2.7085-1.11963 4.13452-3.4348 4.34936-7.07153H25a1 1 0 0 1-1-1v-9a.99974.99974 0 0 1 1-1z"/>
</svg>