<svg xmlns="http://www.w3.org/2000/svg" data-name="county-water" viewBox="0 0 1382 1390">
  <title>
    county-water-logo
  </title>
  <path fill="#18444f" d="M397.63977 659.42688c13.11426-6.1328 23.30762-14.39746 30.30176-24.5703a11.21438 11.21438 0 0 0 1.98535-6.29688 10.56186 10.56186 0 0 0-2.98828-7.47266 10.12807 10.12807 0 0 0-7.6504-3.166 9.91826 9.91826 0 0 0-8.64647 4.332 56.21408 56.21408 0 0 1-23.55566 19.15625 75.91244 75.91244 0 0 1-31.16113 6.6093c-25.082 0-44.25-7.2451-56.9707-21.5352-12.73926-14.2998-19.19824-37.585-19.19824-69.208 0-30.3604 6.6211-53.3809 19.6787-68.4209 13.03614-15.0225 32.042-22.6387 56.49024-22.6387a69.45872 69.45872 0 0 1 31.61426 7.3916c9.70313 4.9052 17.47754 11.3027 23.11523 19.0254a10.59393 10.59393 0 0 0 19.27246-6.3243 12.0064 12.0064 0 0 0-2.3145-6.9482 80.32883 80.32883 0 0 0-30.2832-24.708 94.3805 94.3805 0 0 0-41.4043-9.0791c-31.4707 0-56.1631 9.4873-73.3936 28.1992-17.2207 18.6963-25.9532 46.791-25.9532 83.5029 0 36.917 8.3564 65.00974 24.8388 83.498 16.4961 18.50485 41.5635 27.8877 74.5078 27.8877a97.78216 97.78216 0 0 0 41.7148-9.23437zm122.0293 8.91796c21.1709 0 37.81738-6.5039 49.47656-19.332 11.64844-12.81445 17.5547-32.168 17.5547-57.5205s-5.90724-44.65333-17.55665-57.36524c-11.6621-12.7207-28.30762-19.1709-49.4746-19.1709-21.17188 0-37.8174 6.4502-49.47462 19.1709-11.6494 12.707-17.55664 32.0078-17.55664 57.36523 0 25.3584 5.96 44.7119 17.71484 57.52246 11.76172 12.8261 28.3545 19.33 49.3164 19.33zm34.06055-33.68066c-7.52148 9.4922-18.98145 14.3047-34.06055 14.3047-15.08105 0-26.542-4.8125-34.0625-14.3047-7.54883-9.52637-11.376-24.05176-11.376-43.17187 0-19.0146 3.82715-33.459 11.375-42.9335 7.52148-9.4404 18.98145-14.2275 34.06348-14.2275 15.08008 0 26.54 4.7871 34.06152 14.2276 7.54883 9.4746 11.377 23.9199 11.377 42.9336-.00003 19.1192-3.82815 33.6445-11.37796 43.1719zm179.33593-107.16895a10.55688 10.55688 0 0 0-2.98828-7.47266 9.76052 9.76052 0 0 0-7.333-3.166 10.63855 10.63855 0 0 0-7.79883 3.15625 10.2676 10.2676 0 0 0-3.15625 7.48242v82.68848c0 11.6582-2.7344 20.98633-8.128 27.7256-5.3672 6.708-15.4688 10.10937-30.0235 10.10937-14.5596 0-24.6612-3.4014-30.0235-10.1094-5.3936-6.7334-8.128-16.0615-8.128-27.7256v-82.6885a10.7792 10.7792 0 0 0-10.63868-10.6387 10.543 10.543 0 0 0-7.47166 2.9883 10.11318 10.11318 0 0 0-3.166 7.6504v82.6884c0 17.5683 4.30076 31.7969 12.78416 42.293 8.5049 10.5293 24.19826 15.8681 46.64357 15.8681 22.44042 0 38.1338-5.3389 46.64354-15.8682 8.4834-10.502 12.7842-24.73147 12.7842-42.293v-82.6884zM861.37708 544.59c5.39746 7.06152 8.13477 17.51172 8.13477 31.06152v80.4707a10.64076 10.64076 0 1 0 21.27637 0v-84.58988c0-37.541-19.78125-56.57617-58.79395-56.57617-9.96875 0-18.84473 2.15332-26.3828 6.4004-6.85353 3.86327-11.9756 8.667-15.25392 14.2998v-8.16114a10.12807 10.12807 0 0 0-3.166-7.6504 10.83618 10.83618 0 0 0-14.94434 0 10.11318 10.11318 0 0 0-3.166 7.6504v128.627a10.11318 10.11318 0 0 0 3.166 7.6504 10.83618 10.83618 0 0 0 14.9444 0 10.12807 10.12807 0 0 0 3.166-7.6504v-78.25297c0-14.583 3.498-25.65918 10.3965-32.9209 6.8916-7.25488 17.4024-10.9336 31.2403-10.9336 14.126 0 24.0118 3.55762 29.3828 10.57524zM984.1974 656.756a9.49192 9.49192 0 0 0-3.0088-7.17578 10.3117 10.3117 0 0 0-7.3125-2.8291 16.75436 16.75436 0 0 1-12.9375-5.38184c-3.27637-3.57812-4.9375-8.6338-4.9375-15.02734V539.4005h20.09277a10.00605 10.00605 0 1 0 0-20.00878H956.0011V486.6261a10.6385 10.6385 0 0 0-21.27637 0v32.7656H922.8683a10.006 10.006 0 1 0 0 20.0088h11.85644v86.9414c0 11.90626 3.45508 21.71974 10.26855 29.167 6.8212 7.4668 16.539 11.252 28.8828 11.252a10.3084 10.3084 0 0 0 7.3125-2.8291 9.479 9.479 0 0 0 3.0088-7.1758zm149.1006-136.9014a10.39254 10.39254 0 0 0-7.63965-2.998c-4.85547 0-8.21 2.3467-9.96777 6.96388l-44.208 108.16992-44.2041-108.15918c-1.7666-4.62793-5.12207-6.9746-9.97168-6.9746a10.25915 10.25915 0 0 0-10.6377 10.63866 15.5778 15.5778 0 0 0 .98926 4.62988l52.8291 125.58594c-3.39258 8.46973-5.80078 14.2578-7.36035 17.68848-1.5585 3.4287-3.8964 7.89258-6.9492 13.2666-3.0176 5.30273-5.8545 9.0381-8.4306 11.10254a40.5949 40.5949 0 0 1-10.1709 5.6289 38.75985 38.75985 0 0 1-14.3877 2.5 10.00557 10.00557 0 1 0 0 20.00782c14.625 0 26.6709-3.876 35.8047-11.52148 9.0957-7.61816 17.1367-19.62012 23.9004-35.67383l62.4267-148.62113a15.5033 15.5033 0 0 0 .9756-4.59375 10.39325 10.39325 0 0 0-2.998-7.64064zM570.0804 719.05773c-5.71973 0-9.3994 2.7881-10.93555 8.28516l-45.76953 162.0722-44.82324-162.0528c-1.32227-5.5108-5.0039-8.3047-10.94043-8.3047-5.9375 0-9.61914 2.7939-10.93652 8.2881L401.847 889.4151l-45.76953-162.0713c-1.541-5.498-5.2207-8.2861-10.93555-8.2861a11.31992 11.31992 0 0 0-11.27246 11.27248 17.66392 17.66392 0 0 0 .65332 3.93948L390.598 930.0587c1.53613 5.49708 5.21484 8.28517 10.93652 8.28517 5.71875 0 9.3994-2.8955 10.93652-8.60156l45.14063-159.5576 45.13963 159.5557c1.5332 5.709 5.2129 8.6036 10.93652 8.6036 5.71582 0 9.3955-2.7871 10.93555-8.2822l56.08105-195.8087a17.67665 17.67665 0 0 0 .64844-3.9228 11.31992 11.31992 0 0 0-11.27246-11.2724zm75.52216 67.48243c-24.56836 0-42.4043 8.499-53.01465 25.2627a10.51756 10.51756 0 0 0-1.6601 5.65137 9.69083 9.69083 0 0 0 9.6875 9.6875c2.8789 0 5.7735-1.5459 8.6123-4.6045 9.3604-10.60936 21.5987-15.98827 36.375-15.98827 11.4287 0 20.5342 3.09863 27.0635 9.21094 6.5166 6.10547 9.8213 14.56348 9.8213 25.13867v8.0537h-44.1709c-17.1455 0-30.8945 4.0342-40.8642 11.99024-10.0058 7.9805-15.0791 19.1446-15.0791 33.1807 0 14.4532 5.0196 25.8301 14.919 33.8145 9.8662 7.9561 23.4561 11.9903 40.3907 11.9903a62.18176 62.18176 0 0 0 27.46485-6.0703 40.03047 40.03047 0 0 0 17.33986-15.335v9.5a10.3214 10.3214 0 1 0 20.64256 0v-87.124c0-16.5332-5.06053-29.8711-15.041-39.6426-9.9834-9.7646-24.2783-14.7158-42.48632-14.7158zm36.88477 81.1543v12.80566c0 12.4619-4.25684 22.35352-12.65234 29.39844-8.4209 7.06934-18.5987 10.6543-30.252 10.6543-23.9659 0-35.6163-8.6455-35.6163-26.4297 0-8.65917 3.0752-15.291 9.1406-19.71288 6.1133-4.45605 14.5947-6.71582 25.209-6.71582h44.1709zm106.94824-56.70996a10.00605 10.00605 0 1 0 0-20.0088H769.3428v-32.76562a10.6385 10.6385 0 0 0-21.27637 0v32.76562H736.21a10.006 10.006 0 1 0 0 20.0088h11.85645v86.9414c0 11.90625 3.45508 21.71973 10.26855 29.167 6.8203 7.46582 16.5381 11.251 28.8828 11.251a10.31177 10.31177 0 0 0 7.3125-2.82812 10.06013 10.06013 0 0 0 0-14.3506 10.30832 10.30832 0 0 0-7.3125-2.83007 16.75723 16.75723 0 0 1-12.9375-5.3818c-3.27636-3.5781-4.9375-8.6347-4.9375-15.0273v-86.9415h20.09278zm149.51465 6.73827a54.38065 54.38065 0 0 0-10.55274-15.50877c-4.35352-4.459-10.32715-8.22754-17.75488-11.20215-7.42285-2.96777-16.11914-4.47168-25.84766-4.47168-20.751 0-37.08008 6.71973-48.53418 19.97363-11.43262 13.2334-17.2295 32.26367-17.2295 56.56152 0 25.78516 6.06837 45.24707 18.03712 57.8457 11.9707 12.6123 29.09375 19.00684 50.89453 19.00684 21.1602 0 37.9082-6.01855 49.7774-17.8877 2.4092-2.40918 3.6309-4.9795 3.6309-7.64062a9.6925 9.6925 0 0 0-9.6875-9.6875 10.77408 10.77408 0 0 0-6.0029 2.002c-11.8935 8.97266-24.583 13.52246-37.7177 13.52246-14.5732 0-26.2275-4.63574-34.6396-13.7793-8.3369-9.0547-12.6074-21.45508-12.6982-36.8623h92.0088a14.32163 14.32163 0 0 0 7.54687-1.81543 8.97086 8.97086 0 0 0 4.0244-5.52246 44.99732 44.99732 0 0 0 1.28127-6.0898 64.2793 64.2793 0 0 0 .3203-7.3476 79.00407 79.00407 0 0 0-1.43454-14.8261 73.41212 73.41212 0 0 0-5.42188-16.2705zm-14.10352 33.13086h-84.18262c1.10938-13.92285 5.41992-24.98926 12.81445-32.8994 7.47266-7.9883 18.0088-12.03907 31.3164-12.03907 26.4297 0 39.90236 15.11914 40.05177 44.93847zm116.1338-63.67968c-10.59962 0-19.90626 2.36914-27.66212 7.041a41.37846 41.37846 0 0 0-15.875 16.59863v-11.73436a10.12807 10.12807 0 0 0-3.166-7.6504 10.83618 10.83618 0 0 0-14.94434 0 10.11318 10.11318 0 0 0-3.166 7.6504v128.627a10.11318 10.11318 0 0 0 3.166 7.6504 10.83875 10.83875 0 0 0 14.94434 0 10.12807 10.12807 0 0 0 3.166-7.6504v-70.9668c0-14.80078 3.79785-26.79 11.2871-35.63574 7.46974-8.8164 18.32032-13.2871 32.25-13.2871a10.32142 10.32142 0 1 0 0-20.64263z"/>
  <path fill="#00609c" d="M1226.83667 263.13018A648.5748 648.5748 0 0 1 1342.5774 633.9511c0 359.85626-291.7212 651.57733-651.5774 651.57733S39.42273 993.80736 39.42273 633.9511A648.57428 648.57428 0 0 1 155.1634 263.13018 687.80724 687.80724 0 0 0 .3137 698.9511c0 381.4555 309.23077 690.68634 690.68628 690.68634s690.68628-309.23084 690.68628-690.68634a687.8065 687.8065 0 0 0-154.8496-435.82092z"/>
  <path fill="#00a7ce" d="M81.6907 462.0959A606.38182 606.38182 0 0 1 222.65333 241.934c237.7022-237.7022 623.09364-237.7022 860.79588 0s237.7022 623.0936 0 860.7958a606.3818 606.3818 0 0 1-220.1619 140.96264 630.58517 630.58517 0 0 0 276.1938-161.9261c247.3861-247.3861 247.3861-648.47815 0-895.8642s-648.4782-247.38616-895.8643 0A630.58586 630.58586 0 0 0 81.6907 462.0959z"/>
  <path fill="#26cad3" d="M1088.6981 1061.17423c-101.1071 100.9596-240.69594 163.39194-394.86783 163.39194-308.63892 0-558.84027-250.20124-558.84027-558.84017s250.20135-558.84026 558.84027-558.84026c154.17206 0 293.761 62.43256 394.86823 163.39252-107.12094-117.0395-261.13627-190.444-432.30113-190.444-323.57906 0-585.89173 262.31262-585.89173 585.89168s262.31268 585.8918 585.89173 585.8918c171.16463 0 325.17985-73.40425 432.30073-190.4435z"/>
</svg>